<?xml version="1.0" encoding="UTF-8" standalone="no"?>
<svg width="149px" height="26px" viewBox="0 0 149 26" version="1.1" xmlns="http://www.w3.org/2000/svg" xmlns:xlink="http://www.w3.org/1999/xlink">
    <!-- Generator: Sketch 40 (33762) - http://www.bohemiancoding.com/sketch -->
    <title>Group 2</title>
    <desc>Created with Sketch.</desc>
    <defs>
        <polygon id="path-1" points="5.90259237 26.8299265 8.8817842e-16 26.8299265 8.8817842e-16 0.0194396474 11.8051847 0.0194396474 11.8051847 26.8299265 5.90259237 26.8299265"></polygon>
    </defs>
    <g id="Page-1" stroke="none" stroke-width="1" fill="none" fill-rule="evenodd">
        <g id="1" transform="translate(-941.000000, -207.000000)">
            <g id="Group-2" transform="translate(941.000000, 207.000000)">
                <text id="PiktoOne" font-family="ProximaNova-Bold, Proxima Nova" font-size="22" font-weight="bold" fill="#C2C2C2">
                    <tspan x="56" y="21">PiktoOne</tspan>
                </text>
                <g id="Page-1" transform="translate(25.000000, 13.000000) rotate(-270.000000) translate(-25.000000, -13.000000) translate(12.000000, -12.000000)">
                    <path d="M14.1818187,4.81974728e-05 L14.1818187,4.62250716 C18.1428754,5.3445053 21.4658851,9.00670995 21.4658851,13.4052113 C21.4658851,17.8038733 18.1428754,21.466078 14.1818187,22.1880761 L14.1818187,26.8105351 C20.5195094,26.0334312 25.9870352,20.3196208 25.9870352,13.4052113 C25.9870352,6.49096252 20.5195094,0.777152118 14.1818187,4.81974728e-05" id="Fill-1" fill="#C3C3C3"></path>
                    <path d="M14.1818187,6.40322706 L14.1818187,12.6292159 C14.1818187,12.8399996 14.244245,13.0560849 14.244245,13.2781146 C14.244245,13.4999836 14.1818187,13.716069 14.1818187,13.9268526 L14.1818187,20.1528414 C16.5584528,18.882838 18.3887778,16.2817811 18.3887778,13.2781146 C18.3887778,10.2742874 16.5584528,7.67323047 14.1818187,6.40322706" id="Fill-3" fill="#C3C3C3"></path>
                    <g id="Group-7" transform="translate(-0.000000, 22.520751)">
                        <mask id="mask-2" fill="white">
                            <use xlink:href="#path-1"></use>
                        </mask>
                        <g id="Clip-6"></g>
                        <path d="M11.8051847,26.8299265 L11.8051847,22.2074676 C7.6856858,21.4854694 4.5211184,17.8232648 4.5211184,13.4247634 C4.5211184,9.0261014 7.6856858,5.36405741 11.8051847,4.64205927 L11.8051847,0.0194396474 C5.3090518,0.796543568 -3.16884534e-05,6.51019331 -3.16884534e-05,13.4247634 C-3.16884534e-05,20.3391729 5.3090518,26.0528226 11.8051847,26.8299265" id="Fill-5" fill="#C3C3C3" mask="url(#mask-2)"></path>
                    </g>
                    <path d="M11.8051847,42.9475631 L11.8051847,36.7214136 C11.8051847,36.51063 11.7426,36.2947053 11.7426,36.0726756 C11.7426,35.8506459 11.8051847,35.6345606 11.8051847,35.4237769 L11.8051847,29.1977881 C9.58699301,30.4677915 7.59822567,33.0690091 7.59822567,36.0726756 C7.59822567,39.0763421 9.58699301,41.6775597 11.8051847,42.9475631" id="Fill-8" fill="#C3C3C3"></path>
                </g>
            </g>
        </g>
    </g>
</svg>